<?xml version="1.0" encoding="UTF-8" standalone="no"?>
<svg
   width="1380"
   height="300"
   fill="#111111"
   version="1.1"
   id="svg6"
   sodipodi:docname="GitHub_logo_2013.svg"
   inkscape:version="1.3.2 (091e20ef0f, 2023-11-25, custom)"
   xmlns:inkscape="http://www.inkscape.org/namespaces/inkscape"
   xmlns:sodipodi="http://sodipodi.sourceforge.net/DTD/sodipodi-0.dtd"
   xmlns="http://www.w3.org/2000/svg"
   xmlns:svg="http://www.w3.org/2000/svg">
  <defs
     id="defs6" />
  <sodipodi:namedview
     id="namedview6"
     pagecolor="#ffffff"
     bordercolor="#000000"
     borderopacity="0.25"
     inkscape:showpageshadow="2"
     inkscape:pageopacity="0.0"
     inkscape:pagecheckerboard="0"
     inkscape:deskcolor="#d1d1d1"
     inkscape:zoom="0.46470588"
     inkscape:cx="741.32912"
     inkscape:cy="151.70886"
     inkscape:window-width="1440"
     inkscape:window-height="882"
     inkscape:window-x="0"
     inkscape:window-y="18"
     inkscape:window-maximized="1"
     inkscape:current-layer="svg6" />
  <path
     d="m 482.70992,130.5 c -2,0 -4,2 -4,4 v 41 c 0,2 2,4 4,4 h 33 v 51 c 0,0 -7,3 -28,3 -24,0 -57,-9 -57,-83 0,-74.000002 35,-83.000002 68,-83.000002 29,0 41,5 49,7 2,1 5,-2 5,-4 l 9,-40 c 0,-1 0,-2 -2,-3 -3,-2 -22,-13 -71,-13 -57,0 -113,23 -113,139.000002 0,115 66,132 121,132 46,0 74,-19 74,-19 1,-1 1,-2 1,-3 v -129 c 0,-2 -2,-4 -4,-4"
     id="path1"
     style="fill:#ffffff" />
  <path
     d="m 999.7098,28.499998 c 0,-2 -2,-4 -4,-4 h -46.99988 c -2,0 -4,2 -4,4 0,0 0,91.000002 0,91.000002 h -74 V 28.499998 c 0,-2 -2,-4 -4,-4 h -47 c -2,0 -4,2 -4,4 V 275.5 c 0,2 2,4 4,4 h 47 c 2,0 4,-2 4,-4 v -106 h 74 v 106 c 0,2 2,4 4,4 h 46.99988 c 2,0 4,-2 4,-4 V 28.499998"
     id="path2"
     style="fill:#ffffff" />
  <circle
     cx="625.70984"
     cy="61.499996"
     r="31"
     id="circle2"
     style="fill:#ffffff" />
  <path
     d="m 652.70992,109.5 c 0,-2 -2,-4 -4,-4 h -47 c -2,0 -4,2 -4,4 v 164 c 0,5 3,6 7,6 h 43 c 5,0 6,-2 6,-6"
     id="path3"
     style="fill:#ffffff" />
  <path
     d="m 1132.7098,106.5 c -2,0 -4,2 -4,4 v 121 c 0,0 -12,9 -29,9 -17,0 -21,-8 -21,-24 v -106 c 0,-2 -2,-4 -4,-4 h -47 c -2,0 -4,2 -4,4 v 114 c 0,49 27,61 65,61 31,0 56,-17 56,-17 0,0 1,9 2,10 1,1 2,2 3,2 h 30 c 2,0 4,-2 4,-4 v -166 c 0,-2 -2,-4 -4,-4"
     id="path4"
     style="fill:#ffffff" />
  <path
     d="m 1290.7098,241.5 c -20,0 -29,-9 -29,-9 v -79 c 0,0 11,-7 24,-8 17,-2 33,4 33,44 0,43 -5,52 -29,52 z m -27,-129 V 28.499998 c 0,-2 -2,-4 -4,-4 h -47 c -2,0 -4,2 -4,4 V 275.5 c 0,2 2,4 4,4 h 33 c 1,0 3,-1 3,-2 1,-1 2,-11 2,-11 0,0 19,19 56,19 43,0 68,-22 68,-98 0,-76 -39,-86 -66,-86 -27,0 -45,12 -45,12 z"
     id="path5"
     style="fill:#ffffff" />
  <path
     d="M 753.70992,105.5 V 58.499998 c 0,-2 -1,-3 -3,-3 h -49 c -2,0 -3,1 -3,4 V 108.5 c 0,0 -24,6 -26,6 -2,1 -3,2 -3,4 v 31 c 0,2 2,4 4,4 h 25 v 73 c 0,55 38,60 64,60 12,0 26,-4 28,-5 1,-1 2,-2 2,-4 v -33 c 0,-2 -2,-4 -4,-4 -2,0 -7,1 -13,1 -17,0 -23,-8 -23,-19 0,-11 0,-69 0,-69 h 35 c 2,0 4,-2 4,-4 v -40 c 0,-2 -2,-4 -4,-4"
     id="path6"
     style="fill:#ffffff" />
  <g
     transform="matrix(0.13333333,0,0,-0.13333333,-2.9333384,309.15091)"
     fill="#000000"
     stroke="none"
     id="g2"
     style="fill:#ffffff">
    <path
       d="M 970,2301 C 665,2233 415,2064 243,1808 -58,1357 2,752 386,366 501,250 676,138 808,95 c 49,-16 55,-16 77,-1 24,16 25,20 25,135 v 118 l -88,-5 c -103,-5 -183,13 -231,54 -17,14 -50,62 -73,106 -38,74 -66,108 -144,177 -26,23 -27,24 -9,37 43,32 130,1 185,-65 96,-117 133,-148 188,-160 49,-10 94,-6 162,14 9,3 21,24 27,48 6,23 22,58 35,77 l 24,35 -81,16 c -170,35 -275,96 -344,200 -64,96 -85,179 -86,334 0,146 16,206 79,288 28,36 31,47 23,68 -15,36 -11,188 5,234 13,34 20,40 47,43 45,5 129,-24 214,-72 l 73,-42 64,15 c 91,21 364,20 446,0 l 62,-16 58,35 c 77,46 175,82 224,82 39,0 39,-1 55,-52 17,-59 20,-166 5,-217 -8,-30 -6,-39 16,-68 109,-144 121,-383 29,-579 -62,-129 -193,-219 -369,-252 l -84,-16 31,-55 32,-56 3,-223 4,-223 25,-16 c 23,-15 28,-15 76,2 80,27 217,101 292,158 446,334 590,933 343,1431 -145,293 -419,518 -733,602 -137,36 -395,44 -525,15 z"
       id="path1-3"
       style="fill:#ffffff" />
  </g>
</svg>
