<?xml version="1.0" encoding="UTF-8" standalone="no"?>
<svg
   height="118.1"
   viewBox="0,0,416.4,118.1"
   width="416.4"
   version="1.1"
   id="svg14"
   sodipodi:docname="MariaDB_colour_logo.svg"
   inkscape:version="1.3.2 (091e20ef0f, 2023-11-25, custom)"
   xmlns:inkscape="http://www.inkscape.org/namespaces/inkscape"
   xmlns:sodipodi="http://sodipodi.sourceforge.net/DTD/sodipodi-0.dtd"
   xmlns="http://www.w3.org/2000/svg"
   xmlns:svg="http://www.w3.org/2000/svg">
  <defs
     id="defs14" />
  <sodipodi:namedview
     id="namedview14"
     pagecolor="#ffffff"
     bordercolor="#000000"
     borderopacity="0.25"
     inkscape:showpageshadow="2"
     inkscape:pageopacity="0.0"
     inkscape:pagecheckerboard="0"
     inkscape:deskcolor="#d1d1d1"
     inkscape:zoom="1.9476465"
     inkscape:cx="233.35857"
     inkscape:cy="59.302342"
     inkscape:window-width="1440"
     inkscape:window-height="882"
     inkscape:window-x="0"
     inkscape:window-y="18"
     inkscape:window-maximized="1"
     inkscape:current-layer="svg14" />
  <metadata
     id="metadata1" />
  <g
     transform="translate(-1637.91,-38.13)"
     id="g7">
    <path
       clip-rule="evenodd"
       d="m 1812,38.13 c -2.73,0.09 -1.94,1.32 -7.85,2.78 -5.97,1.47 -13.19,0.57 -19.61,3.27 -16.8,7.04 -19.52,34.26 -39.53,44.79 -13.12,7.41 -26.5,9.11 -38.46,12.86 -9.6,3.85 -15.57,6.4 -22.61,12.47 -5.46,4.71 -6.79,9.28 -12.5,15.19 -5.79,7.87 -27.74,0.88 -33.39,10.75 2.98,1.93 4.7,2.46 9.93,1.77 -1.08,2.05 -7.96,4.75 -6.71,7.77 0,0 16.63,3.03 30.65,-5.43 6.54,-2.66 12.67,-8.29 22.83,-9.64 13.16,-1.75 27.99,2.76 43.9,4.03 -3.29,6.5 -6.68,10.34 -10.31,15.7 -1.12,1.21 0.96,2.28 4.82,1.55 6.94,-1.72 11.97,-3.58 16.96,-7.03 6.51,-4.49 9.31,-8.6 14.8,-15.11 4.77,7.65 21.59,9.33 25.04,2.72 -6.42,-2.72 -7.79,-16.87 -5.59,-22.98 2.6,-5.82 4.47,-14.05 6.57,-21.7 1.89,-6.89 3.06,-17.4 5.32,-22.78 2.7,-6.69 7.95,-8.78 11.89,-12.33 3.94,-3.55 7.86,-6.51 7.74,-14.63 -0.04,-2.64 -1.4,-4.1 -3.89,-4.02 z"
       fill="#1f305f"
       fill-rule="evenodd"
       id="path1" />
    <path
       d="m 1643,148.4 c 10.31,0.31 13.11,0.04 21.26,-3.5 6.93,-3.01 16.2,-11.12 24.39,-13.74 12.02,-3.86 24.91,-3.28 37.7,-1.77 4.28,0.51 8.58,1.22 11.65,0.89 4.79,-2.94 5.02,-10.92 7.99,-11.56 -0.81,15.44 -7.43,25.32 -14.05,34.28 13.95,-2.46 23.27,-11.17 28.91,-21.95 1.71,-3.27 4.55,-8.62 5.85,-12.3 1.03,2.44 -1.34,3.99 -0.23,6.65 8.98,-7.41 13.22,-15.85 16.86,-28.21 4.22,-14.3 8.55,-26.59 11.27,-30.82 2.65,-4.13 6.78,-6.68 10.55,-9.32 4.28,-3.01 8.11,-6.14 8.77,-11.87 -4.52,-0.42 -5.56,-1.46 -6.23,-3.74 -2.26,1.27 -4.34,1.55 -6.69,1.62 -2.04,0.06 -4.28,-0.03 -7.02,0.25 -22.63,2.32 -23.68,24.44 -40.13,40.68 -1.06,1.03 -2.87,2.55 -4.07,3.45 -5.08,3.79 -10.52,5.87 -16.25,8.06 -9.28,3.54 -18.08,4.57 -26.78,7.63 -6.39,2.24 -12.33,4.81 -17.58,8.4 -1.31,0.9 -3.09,2.5 -4.23,3.43 -3.08,2.52 -5.1,5.31 -7.06,8.19 -2.02,2.96 -3.96,6.01 -6.93,8.92 -4.81,4.72 -22.77,1.38 -29.1,5.76 -0.7,0.49 -1.27,1.07 -1.65,1.77 3.45,1.57 5.76,0.61 9.73,1.04 0.49,3.79 -8.22,6.03 -6.93,7.76 z"
       fill="#c0765a"
       id="path2" />
    <path
       clip-rule="evenodd"
       d="m 1787,52.65 c 3.2,2.78 9.92,0.55 8.72,-4.98 -4.98,-0.42 -7.86,1.27 -8.72,4.98 z"
       fill="#1f305f"
       fill-rule="evenodd"
       id="path3" />
    <path
       d="m 1809,46.18 c -0.85,1.79 -2.48,4.09 -2.48,8.64 -0.01,0.78 -0.59,1.32 -0.6,0.11 0.04,-4.45 1.22,-6.37 2.47,-8.89 0.57,-1.03 0.92,-0.61 0.61,0.14 z"
       fill="#1f305f"
       id="path4" />
    <path
       d="m 1808,45.51 c -1.01,1.7 -3.43,4.81 -3.82,9.35 -0.07,0.78 -0.71,1.26 -0.61,0.06 0.44,-4.42 2.37,-7.19 3.84,-9.6 0.66,-0.98 0.97,-0.53 0.59,0.19 z"
       fill="#1f305f"
       id="path5" />
    <path
       d="m 1807,44.62 c -1.15,1.61 -4.87,5.35 -5.65,9.83 -0.14,0.77 -0.81,1.19 -0.61,0.01 0.81,-4.37 4.02,-7.81 5.68,-10.08 0.74,-0.93 1.02,-0.45 0.58,0.24 z"
       fill="#1f305f"
       id="path6" />
    <path
       d="m 1807,43.62 c -1.36,1.44 -5.8,6.2 -7.2,10.53 -0.25,0.74 -0.97,1.07 -0.61,-0.08 1.41,-4.22 5.3,-8.76 7.27,-10.77 0.87,-0.81 1.07,-0.29 0.54,0.32 z"
       fill="#1f305f"
       id="path7" />
  </g>
  <path
     d="m 342.72,49.16 v 31.22 h -3.94 v -5.35 c -3.57,4.27 -7.64,6.41 -12.23,6.41 -4.59,0 -8.47,-1.63 -11.64,-4.88 -3.14,-3.29 -4.7,-7.19 -4.7,-11.7 0,-4.55 1.59,-8.43 4.76,-11.64 3.17,-3.25 6.98,-4.88 11.41,-4.88 5.1,0 9.23,2.18 12.41,6.53 v -5.7 h 3.93 m -3.7,15.74 c 0,-3.57 -1.2,-6.57 -3.59,-9 -2.39,-2.47 -5.33,-3.7 -8.82,-3.7 -3.45,0 -6.37,1.27 -8.76,3.82 -2.39,2.51 -3.59,5.49 -3.59,8.94 0,3.45 1.22,6.45 3.65,9 2.43,2.51 5.33,3.76 8.7,3.76 3.41,0 6.33,-1.22 8.76,-3.65 2.44,-2.42 3.65,-5.48 3.65,-9.17"
     fill="#1f305f"
     id="path8"
     style="fill:#ffffff" />
  <path
     d="M 350.67,80.38 V 38.17 h 8.76 c 6,0 10.39,0.45 13.17,1.35 2.82,0.86 5.25,2.25 7.29,4.17 2.04,1.88 3.61,4.19 4.7,6.94 1.1,2.74 1.65,5.96 1.65,9.64 0,3.65 -0.86,7.09 -2.59,10.35 -1.69,3.21 -4,5.64 -6.94,7.29 -2.9,1.65 -7.09,2.47 -12.58,2.47 z m 4.06,-4 h 4.88 c 5.1,0 8.78,-0.25 11.05,-0.76 2.31,-0.51 4.33,-1.51 6.06,-3 1.72,-1.53 3.04,-3.37 3.94,-5.53 0.9,-2.16 1.35,-4.62 1.35,-7.41 0,-2.78 -0.53,-5.35 -1.59,-7.7 -1.02,-2.35 -2.49,-4.29 -4.41,-5.82 -1.92,-1.53 -4.19,-2.55 -6.82,-3.06 -2.59,-0.55 -6.41,-0.82 -11.46,-0.82 h -3 z"
     fill="#1f305f"
     id="path9"
     style="fill:#ffffff" />
  <path
     d="m 298.27,40.46 c 0,-0.9 0.31,-1.69 0.94,-2.35 0.67,-0.67 1.45,-1 2.35,-1 0.94,0 1.72,0.33 2.35,1 0.67,0.63 1,1.41 1,2.35 0,0.9 -0.33,1.69 -1,2.35 -0.63,0.63 -1.41,0.94 -2.35,0.94 -0.9,0 -1.69,-0.33 -2.35,-1 -0.63,-0.67 -0.94,-1.43 -0.94,-2.29 m 1.29,8.7 h 4.06 v 31.22 h -4.06 z"
     fill="#1f305f"
     id="path10"
     style="fill:#ffffff" />
  <path
     d="m 188.46,80.38 6,-42.21 h 0.65 l 17.16,34.62 17.05,-34.63 h 0.65 l 6.06,42.21 h -4.17 l -4.12,-30.22 -14.93,30.22 h -1.06 l -15.11,-30.45 -4.12,30.45 h -4.06"
     fill="#1f305f"
     id="path11"
     style="fill:#ffffff" />
  <path
     d="m 272.61,49.16 v 31.22 h -3.94 v -5.35 c -3.57,4.27 -7.64,6.41 -12.23,6.41 -4.59,0 -8.47,-1.63 -11.64,-4.88 -3.14,-3.29 -4.7,-7.19 -4.7,-11.7 0,-4.55 1.59,-8.43 4.76,-11.64 3.17,-3.25 6.98,-4.88 11.41,-4.88 5.1,0 9.23,2.18 12.41,6.53 v -5.7 h 3.93 m -3.7,15.74 c 0,-3.57 -1.2,-6.57 -3.59,-9 -2.39,-2.47 -5.33,-3.7 -8.82,-3.7 -3.45,0 -6.37,1.27 -8.76,3.82 -2.39,2.51 -3.59,5.49 -3.59,8.94 0,3.45 1.21,6.45 3.65,9 2.43,2.51 5.33,3.76 8.7,3.76 3.41,0 6.33,-1.22 8.76,-3.65 2.43,-2.42 3.65,-5.48 3.65,-9.17"
     fill="#1f305f"
     id="path12"
     style="fill:#ffffff" />
  <path
     d="m 279.45,49.16 h 4.12 v 4.53 c 1.1,-1.84 2.16,-3.19 3.17,-4.06 1.06,-0.86 2.21,-1.29 3.47,-1.29 1.29,0 2.59,0.35 3.88,1.06 l -2.12,3.41 c -0.59,-0.35 -1.2,-0.53 -1.82,-0.53 -1.21,0 -2.37,0.63 -3.47,1.88 -1.06,1.25 -1.84,2.88 -2.35,4.88 -0.51,1.96 -0.76,5.55 -0.76,10.76 v 10.58 h -4.12 z"
     fill="#1f305f"
     id="path13"
     style="fill:#ffffff" />
  <path
     d="m 391.07,38.16 h 8.35 c 4.43,0 7.78,0.9 10.05,2.7 2.31,1.76 3.47,4.31 3.47,7.64 0,1.84 -0.47,3.55 -1.41,5.11 -0.9,1.53 -2.23,2.76 -4,3.7 2.9,0.94 5.1,2.35 6.58,4.23 1.53,1.88 2.29,4.12 2.29,6.7 0,3.49 -1.27,6.39 -3.82,8.7 -2.55,2.27 -5.84,3.41 -9.88,3.41 h -11.63 z m 4.17,4.12 V 55.8 h 2.41 c 3.68,0 6.43,-0.59 8.23,-1.76 1.8,-1.18 2.7,-3.02 2.7,-5.53 0,-4.15 -2.82,-6.23 -8.47,-6.23 z m 0,17.76 v 16.22 h 5.23 c 3.02,0 5.23,-0.29 6.64,-0.88 1.45,-0.63 2.63,-1.57 3.53,-2.82 0.9,-1.29 1.35,-2.61 1.35,-3.94 0,-1.33 -0.25,-2.51 -0.76,-3.53 -0.51,-1.02 -1.27,-1.92 -2.29,-2.7 -0.98,-0.78 -2.18,-1.37 -3.59,-1.76 -1.37,-0.39 -3.96,-0.59 -7.76,-0.59 z"
     fill="#1f305f"
     id="path14"
     style="fill:#ffffff" />
</svg>
