<?xml version="1.0" encoding="UTF-8" standalone="no"?>
<svg
   version="1.0"
   viewBox="0 0 100 100"
   enable-background="new 0 0 100 100"
   xml:space="preserve"
   id="svg323"
   sodipodi:docname="qr.svg"
   inkscape:version="1.3.2 (091e20ef0f, 2023-11-25, custom)"
   xmlns:inkscape="http://www.inkscape.org/namespaces/inkscape"
   xmlns:sodipodi="http://sodipodi.sourceforge.net/DTD/sodipodi-0.dtd"
   xmlns="http://www.w3.org/2000/svg"
   xmlns:svg="http://www.w3.org/2000/svg"><defs
   id="defs323" /><sodipodi:namedview
   id="namedview323"
   pagecolor="#ffffff"
   bordercolor="#000000"
   borderopacity="0.25"
   inkscape:showpageshadow="2"
   inkscape:pageopacity="0.0"
   inkscape:pagecheckerboard="0"
   inkscape:deskcolor="#d1d1d1"
   inkscape:zoom="4"
   inkscape:cx="75.625"
   inkscape:cy="70.625"
   inkscape:window-width="1440"
   inkscape:window-height="882"
   inkscape:window-x="0"
   inkscape:window-y="18"
   inkscape:window-maximized="1"
   inkscape:current-layer="svg322" />
<svg
   version="1.1"
   width="100"
   height="100"
   viewBox="0 0 2000 2000"
   x="0"
   y="0"
   shape-rendering="crispEdges"
   id="svg322"><defs
   id="defs1" /><rect
   x="0"
   y="0"
   width="2000"
   height="2000"
   fill="#ffffff"
   id="rect1" /><rect
   x="629"
   y="173"
   width="57"
   height="57"
   fill="#000000"
   id="rect2" /><rect
   x="686"
   y="173"
   width="57"
   height="57"
   fill="#000000"
   id="rect3" /><rect
   x="743"
   y="173"
   width="57"
   height="57"
   fill="#000000"
   id="rect4" /><rect
   x="857"
   y="173"
   width="57"
   height="57"
   fill="#000000"
   id="rect5" /><rect
   x="914"
   y="173"
   width="57"
   height="57"
   fill="#000000"
   id="rect6" /><rect
   x="971"
   y="173"
   width="57"
   height="57"
   fill="#000000"
   id="rect7" /><rect
   x="1256"
   y="173"
   width="57"
   height="57"
   fill="#000000"
   id="rect8" /><rect
   x="629"
   y="230"
   width="57"
   height="57"
   fill="#000000"
   id="rect9" /><rect
   x="686"
   y="230"
   width="57"
   height="57"
   fill="#000000"
   id="rect10" /><rect
   x="743"
   y="230"
   width="57"
   height="57"
   fill="#000000"
   id="rect11" /><rect
   x="1085"
   y="230"
   width="57"
   height="57"
   fill="#000000"
   id="rect12" /><rect
   x="1142"
   y="230"
   width="57"
   height="57"
   fill="#000000"
   id="rect13" /><rect
   x="1256"
   y="230"
   width="57"
   height="57"
   fill="#000000"
   id="rect14" /><rect
   x="1313"
   y="230"
   width="57"
   height="57"
   fill="#000000"
   id="rect15" /><rect
   x="629"
   y="287"
   width="57"
   height="57"
   fill="#000000"
   id="rect16" /><rect
   x="743"
   y="287"
   width="57"
   height="57"
   fill="#000000"
   id="rect17" /><rect
   x="800"
   y="287"
   width="57"
   height="57"
   fill="#000000"
   id="rect18" /><rect
   x="971"
   y="287"
   width="57"
   height="57"
   fill="#000000"
   id="rect19" /><rect
   x="1028"
   y="287"
   width="57"
   height="57"
   fill="#000000"
   id="rect20" /><rect
   x="1142"
   y="287"
   width="57"
   height="57"
   fill="#000000"
   id="rect21" /><rect
   x="1199"
   y="287"
   width="57"
   height="57"
   fill="#000000"
   id="rect22" /><rect
   x="1256"
   y="287"
   width="57"
   height="57"
   fill="#000000"
   id="rect23" /><rect
   x="1313"
   y="287"
   width="57"
   height="57"
   fill="#000000"
   id="rect24" /><rect
   x="629"
   y="344"
   width="57"
   height="57"
   fill="#000000"
   id="rect25" /><rect
   x="686"
   y="344"
   width="57"
   height="57"
   fill="#000000"
   id="rect26" /><rect
   x="800"
   y="344"
   width="57"
   height="57"
   fill="#000000"
   id="rect27" /><rect
   x="914"
   y="344"
   width="57"
   height="57"
   fill="#000000"
   id="rect28" /><rect
   x="1028"
   y="344"
   width="57"
   height="57"
   fill="#000000"
   id="rect29" /><rect
   x="1199"
   y="344"
   width="57"
   height="57"
   fill="#000000"
   id="rect30" /><rect
   x="914"
   y="401"
   width="57"
   height="57"
   fill="#000000"
   id="rect31" /><rect
   x="971"
   y="401"
   width="57"
   height="57"
   fill="#000000"
   id="rect32" /><rect
   x="1085"
   y="401"
   width="57"
   height="57"
   fill="#000000"
   id="rect33" /><rect
   x="629"
   y="458"
   width="57"
   height="57"
   fill="#000000"
   id="rect34" /><rect
   x="800"
   y="458"
   width="57"
   height="57"
   fill="#000000"
   id="rect35" /><rect
   x="857"
   y="458"
   width="57"
   height="57"
   fill="#000000"
   id="rect36" /><rect
   x="1028"
   y="458"
   width="57"
   height="57"
   fill="#000000"
   id="rect37" /><rect
   x="1142"
   y="458"
   width="57"
   height="57"
   fill="#000000"
   id="rect38" /><rect
   x="1313"
   y="458"
   width="57"
   height="57"
   fill="#000000"
   id="rect39" /><rect
   x="629"
   y="515"
   width="57"
   height="57"
   fill="#000000"
   id="rect40" /><rect
   x="743"
   y="515"
   width="57"
   height="57"
   fill="#000000"
   id="rect41" /><rect
   x="857"
   y="515"
   width="57"
   height="57"
   fill="#000000"
   id="rect42" /><rect
   x="971"
   y="515"
   width="57"
   height="57"
   fill="#000000"
   id="rect43" /><rect
   x="1085"
   y="515"
   width="57"
   height="57"
   fill="#000000"
   id="rect44" /><rect
   x="1199"
   y="515"
   width="57"
   height="57"
   fill="#000000"
   id="rect45" /><rect
   x="1313"
   y="515"
   width="57"
   height="57"
   fill="#000000"
   id="rect46" /><rect
   x="686"
   y="572"
   width="57"
   height="57"
   fill="#000000"
   id="rect47" /><rect
   x="857"
   y="572"
   width="57"
   height="57"
   fill="#000000"
   id="rect48" /><rect
   x="914"
   y="572"
   width="57"
   height="57"
   fill="#000000"
   id="rect49" /><rect
   x="1085"
   y="572"
   width="57"
   height="57"
   fill="#000000"
   id="rect50" /><rect
   x="1256"
   y="572"
   width="57"
   height="57"
   fill="#000000"
   id="rect51" /><rect
   x="1313"
   y="572"
   width="57"
   height="57"
   fill="#000000"
   id="rect52" /><rect
   x="173"
   y="629"
   width="57"
   height="57"
   fill="#000000"
   id="rect53" /><rect
   x="230"
   y="629"
   width="57"
   height="57"
   fill="#000000"
   id="rect54" /><rect
   x="401"
   y="629"
   width="57"
   height="57"
   fill="#000000"
   id="rect55" /><rect
   x="458"
   y="629"
   width="57"
   height="57"
   fill="#000000"
   id="rect56" /><rect
   x="515"
   y="629"
   width="57"
   height="57"
   fill="#000000"
   id="rect57" /><rect
   x="800"
   y="629"
   width="57"
   height="57"
   fill="#000000"
   id="rect58" /><rect
   x="1256"
   y="629"
   width="57"
   height="57"
   fill="#000000"
   id="rect59" /><rect
   x="1484"
   y="629"
   width="57"
   height="57"
   fill="#000000"
   id="rect60" /><rect
   x="1598"
   y="629"
   width="57"
   height="57"
   fill="#000000"
   id="rect61" /><rect
   x="1655"
   y="629"
   width="57"
   height="57"
   fill="#000000"
   id="rect62" /><rect
   x="1712"
   y="629"
   width="57"
   height="57"
   fill="#000000"
   id="rect63" /><rect
   x="1769"
   y="629"
   width="57"
   height="57"
   fill="#000000"
   id="rect64" /><rect
   x="173"
   y="686"
   width="57"
   height="57"
   fill="#000000"
   id="rect65" /><rect
   x="344"
   y="686"
   width="57"
   height="57"
   fill="#000000"
   id="rect66" /><rect
   x="458"
   y="686"
   width="57"
   height="57"
   fill="#000000"
   id="rect67" /><rect
   x="686"
   y="686"
   width="57"
   height="57"
   fill="#000000"
   id="rect68" /><rect
   x="743"
   y="686"
   width="57"
   height="57"
   fill="#000000"
   id="rect69" /><rect
   x="857"
   y="686"
   width="57"
   height="57"
   fill="#000000"
   id="rect70" /><rect
   x="914"
   y="686"
   width="57"
   height="57"
   fill="#000000"
   id="rect71" /><rect
   x="1028"
   y="686"
   width="57"
   height="57"
   fill="#000000"
   id="rect72" /><rect
   x="1484"
   y="686"
   width="57"
   height="57"
   fill="#000000"
   id="rect73" /><rect
   x="1541"
   y="686"
   width="57"
   height="57"
   fill="#000000"
   id="rect74" /><rect
   x="1655"
   y="686"
   width="57"
   height="57"
   fill="#000000"
   id="rect75" /><rect
   x="230"
   y="743"
   width="57"
   height="57"
   fill="#000000"
   id="rect76" /><rect
   x="287"
   y="743"
   width="57"
   height="57"
   fill="#000000"
   id="rect77" /><rect
   x="344"
   y="743"
   width="57"
   height="57"
   fill="#000000"
   id="rect78" /><rect
   x="401"
   y="743"
   width="57"
   height="57"
   fill="#000000"
   id="rect79" /><rect
   x="458"
   y="743"
   width="57"
   height="57"
   fill="#000000"
   id="rect80" /><rect
   x="515"
   y="743"
   width="57"
   height="57"
   fill="#000000"
   id="rect81" /><rect
   x="629"
   y="743"
   width="57"
   height="57"
   fill="#000000"
   id="rect82" /><rect
   x="800"
   y="743"
   width="57"
   height="57"
   fill="#000000"
   id="rect83" /><rect
   x="857"
   y="743"
   width="57"
   height="57"
   fill="#000000"
   id="rect84" /><rect
   x="914"
   y="743"
   width="57"
   height="57"
   fill="#000000"
   id="rect85" /><rect
   x="971"
   y="743"
   width="57"
   height="57"
   fill="#000000"
   id="rect86" /><rect
   x="1028"
   y="743"
   width="57"
   height="57"
   fill="#000000"
   id="rect87" /><rect
   x="1199"
   y="743"
   width="57"
   height="57"
   fill="#000000"
   id="rect88" /><rect
   x="1256"
   y="743"
   width="57"
   height="57"
   fill="#000000"
   id="rect89" /><rect
   x="1427"
   y="743"
   width="57"
   height="57"
   fill="#000000"
   id="rect90" /><rect
   x="1541"
   y="743"
   width="57"
   height="57"
   fill="#000000"
   id="rect91" /><rect
   x="1598"
   y="743"
   width="57"
   height="57"
   fill="#000000"
   id="rect92" /><rect
   x="1655"
   y="743"
   width="57"
   height="57"
   fill="#000000"
   id="rect93" /><rect
   x="1769"
   y="743"
   width="57"
   height="57"
   fill="#000000"
   id="rect94" /><rect
   x="173"
   y="800"
   width="57"
   height="57"
   fill="#000000"
   id="rect95" /><rect
   x="344"
   y="800"
   width="57"
   height="57"
   fill="#000000"
   id="rect96" /><rect
   x="401"
   y="800"
   width="57"
   height="57"
   fill="#000000"
   id="rect97" /><rect
   x="458"
   y="800"
   width="57"
   height="57"
   fill="#000000"
   id="rect98" /><rect
   x="572"
   y="800"
   width="57"
   height="57"
   fill="#000000"
   id="rect99" /><rect
   x="743"
   y="800"
   width="57"
   height="57"
   fill="#000000"
   id="rect100" /><rect
   x="800"
   y="800"
   width="57"
   height="57"
   fill="#000000"
   id="rect101" /><rect
   x="914"
   y="800"
   width="57"
   height="57"
   fill="#000000"
   id="rect102" /><rect
   x="971"
   y="800"
   width="57"
   height="57"
   fill="#000000"
   id="rect103" /><rect
   x="1085"
   y="800"
   width="57"
   height="57"
   fill="#000000"
   id="rect104" /><rect
   x="1142"
   y="800"
   width="57"
   height="57"
   fill="#000000"
   id="rect105" /><rect
   x="1256"
   y="800"
   width="57"
   height="57"
   fill="#000000"
   id="rect106" /><rect
   x="1370"
   y="800"
   width="57"
   height="57"
   fill="#000000"
   id="rect107" /><rect
   x="1598"
   y="800"
   width="57"
   height="57"
   fill="#000000"
   id="rect108" /><rect
   x="173"
   y="857"
   width="57"
   height="57"
   fill="#000000"
   id="rect109" /><rect
   x="458"
   y="857"
   width="57"
   height="57"
   fill="#000000"
   id="rect110" /><rect
   x="515"
   y="857"
   width="57"
   height="57"
   fill="#000000"
   id="rect111" /><rect
   x="743"
   y="857"
   width="57"
   height="57"
   fill="#000000"
   id="rect112" /><rect
   x="857"
   y="857"
   width="57"
   height="57"
   fill="#000000"
   id="rect113" /><rect
   x="914"
   y="857"
   width="57"
   height="57"
   fill="#000000"
   id="rect114" /><rect
   x="971"
   y="857"
   width="57"
   height="57"
   fill="#000000"
   id="rect115" /><rect
   x="1085"
   y="857"
   width="57"
   height="57"
   fill="#000000"
   id="rect116" /><rect
   x="1199"
   y="857"
   width="57"
   height="57"
   fill="#000000"
   id="rect117" /><rect
   x="1256"
   y="857"
   width="57"
   height="57"
   fill="#000000"
   id="rect118" /><rect
   x="1427"
   y="857"
   width="57"
   height="57"
   fill="#000000"
   id="rect119" /><rect
   x="1484"
   y="857"
   width="57"
   height="57"
   fill="#000000"
   id="rect120" /><rect
   x="1541"
   y="857"
   width="57"
   height="57"
   fill="#000000"
   id="rect121" /><rect
   x="1598"
   y="857"
   width="57"
   height="57"
   fill="#000000"
   id="rect122" /><rect
   x="1655"
   y="857"
   width="57"
   height="57"
   fill="#000000"
   id="rect123" /><rect
   x="1712"
   y="857"
   width="57"
   height="57"
   fill="#000000"
   id="rect124" /><rect
   x="173"
   y="914"
   width="57"
   height="57"
   fill="#000000"
   id="rect125" /><rect
   x="344"
   y="914"
   width="57"
   height="57"
   fill="#000000"
   id="rect126" /><rect
   x="401"
   y="914"
   width="57"
   height="57"
   fill="#000000"
   id="rect127" /><rect
   x="458"
   y="914"
   width="57"
   height="57"
   fill="#000000"
   id="rect128" /><rect
   x="629"
   y="914"
   width="57"
   height="57"
   fill="#000000"
   id="rect129" /><rect
   x="686"
   y="914"
   width="57"
   height="57"
   fill="#000000"
   id="rect130" /><rect
   x="914"
   y="914"
   width="57"
   height="57"
   fill="#000000"
   id="rect131" /><rect
   x="1028"
   y="914"
   width="57"
   height="57"
   fill="#000000"
   id="rect132" /><rect
   x="1256"
   y="914"
   width="57"
   height="57"
   fill="#000000"
   id="rect133" /><rect
   x="1655"
   y="914"
   width="57"
   height="57"
   fill="#000000"
   id="rect134" /><rect
   x="401"
   y="971"
   width="57"
   height="57"
   fill="#000000"
   id="rect135" /><rect
   x="458"
   y="971"
   width="57"
   height="57"
   fill="#000000"
   id="rect136" /><rect
   x="515"
   y="971"
   width="57"
   height="57"
   fill="#000000"
   id="rect137" /><rect
   x="629"
   y="971"
   width="57"
   height="57"
   fill="#000000"
   id="rect138" /><rect
   x="743"
   y="971"
   width="57"
   height="57"
   fill="#000000"
   id="rect139" /><rect
   x="914"
   y="971"
   width="57"
   height="57"
   fill="#000000"
   id="rect140" /><rect
   x="971"
   y="971"
   width="57"
   height="57"
   fill="#000000"
   id="rect141" /><rect
   x="1028"
   y="971"
   width="57"
   height="57"
   fill="#000000"
   id="rect142" /><rect
   x="1199"
   y="971"
   width="57"
   height="57"
   fill="#000000"
   id="rect143" /><rect
   x="1256"
   y="971"
   width="57"
   height="57"
   fill="#000000"
   id="rect144" /><rect
   x="1427"
   y="971"
   width="57"
   height="57"
   fill="#000000"
   id="rect145" /><rect
   x="1484"
   y="971"
   width="57"
   height="57"
   fill="#000000"
   id="rect146" /><rect
   x="1541"
   y="971"
   width="57"
   height="57"
   fill="#000000"
   id="rect147" /><rect
   x="1598"
   y="971"
   width="57"
   height="57"
   fill="#000000"
   id="rect148" /><rect
   x="1655"
   y="971"
   width="57"
   height="57"
   fill="#000000"
   id="rect149" /><rect
   x="1712"
   y="971"
   width="57"
   height="57"
   fill="#000000"
   id="rect150" /><rect
   x="230"
   y="1028"
   width="57"
   height="57"
   fill="#000000"
   id="rect151" /><rect
   x="287"
   y="1028"
   width="57"
   height="57"
   fill="#000000"
   id="rect152" /><rect
   x="401"
   y="1028"
   width="57"
   height="57"
   fill="#000000"
   id="rect153" /><rect
   x="572"
   y="1028"
   width="57"
   height="57"
   fill="#000000"
   id="rect154" /><rect
   x="857"
   y="1028"
   width="57"
   height="57"
   fill="#000000"
   id="rect155" /><rect
   x="1085"
   y="1028"
   width="57"
   height="57"
   fill="#000000"
   id="rect156" /><rect
   x="1256"
   y="1028"
   width="57"
   height="57"
   fill="#000000"
   id="rect157" /><rect
   x="1313"
   y="1028"
   width="57"
   height="57"
   fill="#000000"
   id="rect158" /><rect
   x="1712"
   y="1028"
   width="57"
   height="57"
   fill="#000000"
   id="rect159" /><rect
   x="401"
   y="1085"
   width="57"
   height="57"
   fill="#000000"
   id="rect160" /><rect
   x="458"
   y="1085"
   width="57"
   height="57"
   fill="#000000"
   id="rect161" /><rect
   x="515"
   y="1085"
   width="57"
   height="57"
   fill="#000000"
   id="rect162" /><rect
   x="572"
   y="1085"
   width="57"
   height="57"
   fill="#000000"
   id="rect163" /><rect
   x="629"
   y="1085"
   width="57"
   height="57"
   fill="#000000"
   id="rect164" /><rect
   x="686"
   y="1085"
   width="57"
   height="57"
   fill="#000000"
   id="rect165" /><rect
   x="800"
   y="1085"
   width="57"
   height="57"
   fill="#000000"
   id="rect166" /><rect
   x="914"
   y="1085"
   width="57"
   height="57"
   fill="#000000"
   id="rect167" /><rect
   x="1085"
   y="1085"
   width="57"
   height="57"
   fill="#000000"
   id="rect168" /><rect
   x="1142"
   y="1085"
   width="57"
   height="57"
   fill="#000000"
   id="rect169" /><rect
   x="1256"
   y="1085"
   width="57"
   height="57"
   fill="#000000"
   id="rect170" /><rect
   x="1370"
   y="1085"
   width="57"
   height="57"
   fill="#000000"
   id="rect171" /><rect
   x="1484"
   y="1085"
   width="57"
   height="57"
   fill="#000000"
   id="rect172" /><rect
   x="1598"
   y="1085"
   width="57"
   height="57"
   fill="#000000"
   id="rect173" /><rect
   x="1655"
   y="1085"
   width="57"
   height="57"
   fill="#000000"
   id="rect174" /><rect
   x="1712"
   y="1085"
   width="57"
   height="57"
   fill="#000000"
   id="rect175" /><rect
   x="173"
   y="1142"
   width="57"
   height="57"
   fill="#000000"
   id="rect176" /><rect
   x="344"
   y="1142"
   width="57"
   height="57"
   fill="#000000"
   id="rect177" /><rect
   x="401"
   y="1142"
   width="57"
   height="57"
   fill="#000000"
   id="rect178" /><rect
   x="458"
   y="1142"
   width="57"
   height="57"
   fill="#000000"
   id="rect179" /><rect
   x="857"
   y="1142"
   width="57"
   height="57"
   fill="#000000"
   id="rect180" /><rect
   x="914"
   y="1142"
   width="57"
   height="57"
   fill="#000000"
   id="rect181" /><rect
   x="1199"
   y="1142"
   width="57"
   height="57"
   fill="#000000"
   id="rect182" /><rect
   x="1370"
   y="1142"
   width="57"
   height="57"
   fill="#000000"
   id="rect183" /><rect
   x="1484"
   y="1142"
   width="57"
   height="57"
   fill="#000000"
   id="rect184" /><rect
   x="1541"
   y="1142"
   width="57"
   height="57"
   fill="#000000"
   id="rect185" /><rect
   x="1655"
   y="1142"
   width="57"
   height="57"
   fill="#000000"
   id="rect186" /><rect
   x="1769"
   y="1142"
   width="57"
   height="57"
   fill="#000000"
   id="rect187" /><rect
   x="287"
   y="1199"
   width="57"
   height="57"
   fill="#000000"
   id="rect188" /><rect
   x="344"
   y="1199"
   width="57"
   height="57"
   fill="#000000"
   id="rect189" /><rect
   x="401"
   y="1199"
   width="57"
   height="57"
   fill="#000000"
   id="rect190" /><rect
   x="515"
   y="1199"
   width="57"
   height="57"
   fill="#000000"
   id="rect191" /><rect
   x="572"
   y="1199"
   width="57"
   height="57"
   fill="#000000"
   id="rect192" /><rect
   x="629"
   y="1199"
   width="57"
   height="57"
   fill="#000000"
   id="rect193" /><rect
   x="743"
   y="1199"
   width="57"
   height="57"
   fill="#000000"
   id="rect194" /><rect
   x="800"
   y="1199"
   width="57"
   height="57"
   fill="#000000"
   id="rect195" /><rect
   x="857"
   y="1199"
   width="57"
   height="57"
   fill="#000000"
   id="rect196" /><rect
   x="914"
   y="1199"
   width="57"
   height="57"
   fill="#000000"
   id="rect197" /><rect
   x="971"
   y="1199"
   width="57"
   height="57"
   fill="#000000"
   id="rect198" /><rect
   x="1028"
   y="1199"
   width="57"
   height="57"
   fill="#000000"
   id="rect199" /><rect
   x="1199"
   y="1199"
   width="57"
   height="57"
   fill="#000000"
   id="rect200" /><rect
   x="1256"
   y="1199"
   width="57"
   height="57"
   fill="#000000"
   id="rect201" /><rect
   x="1427"
   y="1199"
   width="57"
   height="57"
   fill="#000000"
   id="rect202" /><rect
   x="1484"
   y="1199"
   width="57"
   height="57"
   fill="#000000"
   id="rect203" /><rect
   x="1541"
   y="1199"
   width="57"
   height="57"
   fill="#000000"
   id="rect204" /><rect
   x="1598"
   y="1199"
   width="57"
   height="57"
   fill="#000000"
   id="rect205" /><rect
   x="1655"
   y="1199"
   width="57"
   height="57"
   fill="#000000"
   id="rect206" /><rect
   x="1712"
   y="1199"
   width="57"
   height="57"
   fill="#000000"
   id="rect207" /><rect
   x="344"
   y="1256"
   width="57"
   height="57"
   fill="#000000"
   id="rect208" /><rect
   x="458"
   y="1256"
   width="57"
   height="57"
   fill="#000000"
   id="rect209" /><rect
   x="629"
   y="1256"
   width="57"
   height="57"
   fill="#000000"
   id="rect210" /><rect
   x="800"
   y="1256"
   width="57"
   height="57"
   fill="#000000"
   id="rect211" /><rect
   x="1085"
   y="1256"
   width="57"
   height="57"
   fill="#000000"
   id="rect212" /><rect
   x="1256"
   y="1256"
   width="57"
   height="57"
   fill="#000000"
   id="rect213" /><rect
   x="1313"
   y="1256"
   width="57"
   height="57"
   fill="#000000"
   id="rect214" /><rect
   x="1370"
   y="1256"
   width="57"
   height="57"
   fill="#000000"
   id="rect215" /><rect
   x="1712"
   y="1256"
   width="57"
   height="57"
   fill="#000000"
   id="rect216" /><rect
   x="173"
   y="1313"
   width="57"
   height="57"
   fill="#000000"
   id="rect217" /><rect
   x="230"
   y="1313"
   width="57"
   height="57"
   fill="#000000"
   id="rect218" /><rect
   x="515"
   y="1313"
   width="57"
   height="57"
   fill="#000000"
   id="rect219" /><rect
   x="572"
   y="1313"
   width="57"
   height="57"
   fill="#000000"
   id="rect220" /><rect
   x="743"
   y="1313"
   width="57"
   height="57"
   fill="#000000"
   id="rect221" /><rect
   x="857"
   y="1313"
   width="57"
   height="57"
   fill="#000000"
   id="rect222" /><rect
   x="971"
   y="1313"
   width="57"
   height="57"
   fill="#000000"
   id="rect223" /><rect
   x="1256"
   y="1313"
   width="57"
   height="57"
   fill="#000000"
   id="rect224" /><rect
   x="1313"
   y="1313"
   width="57"
   height="57"
   fill="#000000"
   id="rect225" /><rect
   x="1370"
   y="1313"
   width="57"
   height="57"
   fill="#000000"
   id="rect226" /><rect
   x="1427"
   y="1313"
   width="57"
   height="57"
   fill="#000000"
   id="rect227" /><rect
   x="1484"
   y="1313"
   width="57"
   height="57"
   fill="#000000"
   id="rect228" /><rect
   x="1541"
   y="1313"
   width="57"
   height="57"
   fill="#000000"
   id="rect229" /><rect
   x="629"
   y="1370"
   width="57"
   height="57"
   fill="#000000"
   id="rect230" /><rect
   x="686"
   y="1370"
   width="57"
   height="57"
   fill="#000000"
   id="rect231" /><rect
   x="914"
   y="1370"
   width="57"
   height="57"
   fill="#000000"
   id="rect232" /><rect
   x="1199"
   y="1370"
   width="57"
   height="57"
   fill="#000000"
   id="rect233" /><rect
   x="1313"
   y="1370"
   width="57"
   height="57"
   fill="#000000"
   id="rect234" /><rect
   x="1541"
   y="1370"
   width="57"
   height="57"
   fill="#000000"
   id="rect235" /><rect
   x="1598"
   y="1370"
   width="57"
   height="57"
   fill="#000000"
   id="rect236" /><rect
   x="1655"
   y="1370"
   width="57"
   height="57"
   fill="#000000"
   id="rect237" /><rect
   x="686"
   y="1427"
   width="57"
   height="57"
   fill="#000000"
   id="rect238" /><rect
   x="743"
   y="1427"
   width="57"
   height="57"
   fill="#000000"
   id="rect239" /><rect
   x="914"
   y="1427"
   width="57"
   height="57"
   fill="#000000"
   id="rect240" /><rect
   x="971"
   y="1427"
   width="57"
   height="57"
   fill="#000000"
   id="rect241" /><rect
   x="1028"
   y="1427"
   width="57"
   height="57"
   fill="#000000"
   id="rect242" /><rect
   x="1199"
   y="1427"
   width="57"
   height="57"
   fill="#000000"
   id="rect243" /><rect
   x="1256"
   y="1427"
   width="57"
   height="57"
   fill="#000000"
   id="rect244" /><rect
   x="1313"
   y="1427"
   width="57"
   height="57"
   fill="#000000"
   id="rect245" /><rect
   x="1427"
   y="1427"
   width="57"
   height="57"
   fill="#000000"
   id="rect246" /><rect
   x="1541"
   y="1427"
   width="57"
   height="57"
   fill="#000000"
   id="rect247" /><rect
   x="1598"
   y="1427"
   width="57"
   height="57"
   fill="#000000"
   id="rect248" /><rect
   x="1655"
   y="1427"
   width="57"
   height="57"
   fill="#000000"
   id="rect249" /><rect
   x="1769"
   y="1427"
   width="57"
   height="57"
   fill="#000000"
   id="rect250" /><rect
   x="629"
   y="1484"
   width="57"
   height="57"
   fill="#000000"
   id="rect251" /><rect
   x="686"
   y="1484"
   width="57"
   height="57"
   fill="#000000"
   id="rect252" /><rect
   x="857"
   y="1484"
   width="57"
   height="57"
   fill="#000000"
   id="rect253" /><rect
   x="971"
   y="1484"
   width="57"
   height="57"
   fill="#000000"
   id="rect254" /><rect
   x="1085"
   y="1484"
   width="57"
   height="57"
   fill="#000000"
   id="rect255" /><rect
   x="1142"
   y="1484"
   width="57"
   height="57"
   fill="#000000"
   id="rect256" /><rect
   x="1199"
   y="1484"
   width="57"
   height="57"
   fill="#000000"
   id="rect257" /><rect
   x="1313"
   y="1484"
   width="57"
   height="57"
   fill="#000000"
   id="rect258" /><rect
   x="1541"
   y="1484"
   width="57"
   height="57"
   fill="#000000"
   id="rect259" /><rect
   x="1655"
   y="1484"
   width="57"
   height="57"
   fill="#000000"
   id="rect260" /><rect
   x="1712"
   y="1484"
   width="57"
   height="57"
   fill="#000000"
   id="rect261" /><rect
   x="629"
   y="1541"
   width="57"
   height="57"
   fill="#000000"
   id="rect262" /><rect
   x="743"
   y="1541"
   width="57"
   height="57"
   fill="#000000"
   id="rect263" /><rect
   x="800"
   y="1541"
   width="57"
   height="57"
   fill="#000000"
   id="rect264" /><rect
   x="857"
   y="1541"
   width="57"
   height="57"
   fill="#000000"
   id="rect265" /><rect
   x="914"
   y="1541"
   width="57"
   height="57"
   fill="#000000"
   id="rect266" /><rect
   x="1085"
   y="1541"
   width="57"
   height="57"
   fill="#000000"
   id="rect267" /><rect
   x="1142"
   y="1541"
   width="57"
   height="57"
   fill="#000000"
   id="rect268" /><rect
   x="1199"
   y="1541"
   width="57"
   height="57"
   fill="#000000"
   id="rect269" /><rect
   x="1256"
   y="1541"
   width="57"
   height="57"
   fill="#000000"
   id="rect270" /><rect
   x="1313"
   y="1541"
   width="57"
   height="57"
   fill="#000000"
   id="rect271" /><rect
   x="1370"
   y="1541"
   width="57"
   height="57"
   fill="#000000"
   id="rect272" /><rect
   x="1427"
   y="1541"
   width="57"
   height="57"
   fill="#000000"
   id="rect273" /><rect
   x="1484"
   y="1541"
   width="57"
   height="57"
   fill="#000000"
   id="rect274" /><rect
   x="1541"
   y="1541"
   width="57"
   height="57"
   fill="#000000"
   id="rect275" /><rect
   x="1598"
   y="1541"
   width="57"
   height="57"
   fill="#000000"
   id="rect276" /><rect
   x="1769"
   y="1541"
   width="57"
   height="57"
   fill="#000000"
   id="rect277" /><rect
   x="857"
   y="1598"
   width="57"
   height="57"
   fill="#000000"
   id="rect278" /><rect
   x="914"
   y="1598"
   width="57"
   height="57"
   fill="#000000"
   id="rect279" /><rect
   x="971"
   y="1598"
   width="57"
   height="57"
   fill="#000000"
   id="rect280" /><rect
   x="1256"
   y="1598"
   width="57"
   height="57"
   fill="#000000"
   id="rect281" /><rect
   x="1484"
   y="1598"
   width="57"
   height="57"
   fill="#000000"
   id="rect282" /><rect
   x="1598"
   y="1598"
   width="57"
   height="57"
   fill="#000000"
   id="rect283" /><rect
   x="1655"
   y="1598"
   width="57"
   height="57"
   fill="#000000"
   id="rect284" /><rect
   x="1712"
   y="1598"
   width="57"
   height="57"
   fill="#000000"
   id="rect285" /><rect
   x="686"
   y="1655"
   width="57"
   height="57"
   fill="#000000"
   id="rect286" /><rect
   x="743"
   y="1655"
   width="57"
   height="57"
   fill="#000000"
   id="rect287" /><rect
   x="800"
   y="1655"
   width="57"
   height="57"
   fill="#000000"
   id="rect288" /><rect
   x="914"
   y="1655"
   width="57"
   height="57"
   fill="#000000"
   id="rect289" /><rect
   x="971"
   y="1655"
   width="57"
   height="57"
   fill="#000000"
   id="rect290" /><rect
   x="1028"
   y="1655"
   width="57"
   height="57"
   fill="#000000"
   id="rect291" /><rect
   x="1256"
   y="1655"
   width="57"
   height="57"
   fill="#000000"
   id="rect292" /><rect
   x="1370"
   y="1655"
   width="57"
   height="57"
   fill="#000000"
   id="rect293" /><rect
   x="1541"
   y="1655"
   width="57"
   height="57"
   fill="#000000"
   id="rect294" /><rect
   x="1655"
   y="1655"
   width="57"
   height="57"
   fill="#000000"
   id="rect295" /><rect
   x="1712"
   y="1655"
   width="57"
   height="57"
   fill="#000000"
   id="rect296" /><rect
   x="1769"
   y="1655"
   width="57"
   height="57"
   fill="#000000"
   id="rect297" /><rect
   x="629"
   y="1712"
   width="57"
   height="57"
   fill="#000000"
   id="rect298" /><rect
   x="686"
   y="1712"
   width="57"
   height="57"
   fill="#000000"
   id="rect299" /><rect
   x="743"
   y="1712"
   width="57"
   height="57"
   fill="#000000"
   id="rect300" /><rect
   x="800"
   y="1712"
   width="57"
   height="57"
   fill="#000000"
   id="rect301" /><rect
   x="914"
   y="1712"
   width="57"
   height="57"
   fill="#000000"
   id="rect302" /><rect
   x="1085"
   y="1712"
   width="57"
   height="57"
   fill="#000000"
   id="rect303" /><rect
   x="1313"
   y="1712"
   width="57"
   height="57"
   fill="#000000"
   id="rect304" /><rect
   x="1370"
   y="1712"
   width="57"
   height="57"
   fill="#000000"
   id="rect305" /><rect
   x="1427"
   y="1712"
   width="57"
   height="57"
   fill="#000000"
   id="rect306" /><rect
   x="1484"
   y="1712"
   width="57"
   height="57"
   fill="#000000"
   id="rect307" /><rect
   x="1541"
   y="1712"
   width="57"
   height="57"
   fill="#000000"
   id="rect308" /><rect
   x="1598"
   y="1712"
   width="57"
   height="57"
   fill="#000000"
   id="rect309" /><rect
   x="1655"
   y="1712"
   width="57"
   height="57"
   fill="#000000"
   id="rect310" /><rect
   x="629"
   y="1769"
   width="57"
   height="57"
   fill="#000000"
   id="rect311" /><rect
   x="686"
   y="1769"
   width="57"
   height="57"
   fill="#000000"
   id="rect312" /><rect
   x="1085"
   y="1769"
   width="57"
   height="57"
   fill="#000000"
   id="rect313" /><rect
   x="1142"
   y="1769"
   width="57"
   height="57"
   fill="#000000"
   id="rect314" /><rect
   x="1427"
   y="1769"
   width="57"
   height="57"
   fill="#000000"
   id="rect315" /><rect
   x="1541"
   y="1769"
   width="57"
   height="57"
   fill="#000000"
   id="rect316" /><rect
   x="1712"
   y="1769"
   width="57"
   height="57"
   fill="#000000"
   id="rect317" /><svg
   version="1.1"
   id="Ebene_1"
   x="173"
   y="173"
   width="399"
   height="399"
   viewBox="0 0 699.988 699.986"
   enable-background="new 0 0 699.988 699.986"
   xml:space="preserve"
   shape-rendering="auto">
<path
   fill="#000000"
   d="M600.99,0h-100h-99.997h-0.001h-99.997h-99.998h-99.998H1v99.998v99.998v99.998v99.999v99.997v99.998v99.998  h99.999h99.998h99.998h99.997h0.001h99.997h100h99.998v-99.998V499.99v-99.997v-99.999v-99.998V99.998V0H600.99z M600.99,199.996  v99.998v99.999v99.997v99.998h-100h-99.997h-0.001h-99.997h-99.998h-99.998V499.99v-99.997v-99.999v-99.998V99.998h99.998h99.998  h99.997h0.001h99.997h100V199.996z"
   id="path317" />
</svg>
<svg
   version="1.0"
   id="svg317"
   x="173"
   y="173"
   width="399"
   height="399"
   viewBox="0 0 699.988 699.988"
   enable-background="new 0 0 699.988 699.988"
   xml:space="preserve"
   shape-rendering="auto">
<polygon
   fill="#000000"
   points="399.994,199.997 399.992,199.997 299.996,199.997 199.998,199.997 199.998,299.994 199.998,399.994   199.998,499.991 299.996,499.991 399.992,499.991 399.994,499.991 499.99,499.991 499.99,399.994 499.99,299.994 499.99,199.997 "
   id="polygon317" />
</svg>
<svg
   version="1.1"
   id="svg318"
   x="1427"
   y="173"
   width="399"
   height="399"
   viewBox="0 0 699.988 699.986"
   enable-background="new 0 0 699.988 699.986"
   xml:space="preserve"
   shape-rendering="auto">
<path
   fill="#000000"
   d="M600.99,0h-100h-99.997h-0.001h-99.997h-99.998h-99.998H1v99.998v99.998v99.998v99.999v99.997v99.998v99.998  h99.999h99.998h99.998h99.997h0.001h99.997h100h99.998v-99.998V499.99v-99.997v-99.999v-99.998V99.998V0H600.99z M600.99,199.996  v99.998v99.999v99.997v99.998h-100h-99.997h-0.001h-99.997h-99.998h-99.998V499.99v-99.997v-99.999v-99.998V99.998h99.998h99.998  h99.997h0.001h99.997h100V199.996z"
   id="path318" />
</svg>
<svg
   version="1.0"
   id="svg319"
   x="1427"
   y="173"
   width="399"
   height="399"
   viewBox="0 0 699.988 699.988"
   enable-background="new 0 0 699.988 699.988"
   xml:space="preserve"
   shape-rendering="auto">
<polygon
   fill="#000000"
   points="399.994,199.997 399.992,199.997 299.996,199.997 199.998,199.997 199.998,299.994 199.998,399.994   199.998,499.991 299.996,499.991 399.992,499.991 399.994,499.991 499.99,499.991 499.99,399.994 499.99,299.994 499.99,199.997 "
   id="polygon318" />
</svg>
<svg
   version="1.1"
   id="svg320"
   x="173"
   y="1427"
   width="399"
   height="399"
   viewBox="0 0 699.988 699.986"
   enable-background="new 0 0 699.988 699.986"
   xml:space="preserve"
   shape-rendering="auto">
<path
   fill="#000000"
   d="M600.99,0h-100h-99.997h-0.001h-99.997h-99.998h-99.998H1v99.998v99.998v99.998v99.999v99.997v99.998v99.998  h99.999h99.998h99.998h99.997h0.001h99.997h100h99.998v-99.998V499.99v-99.997v-99.999v-99.998V99.998V0H600.99z M600.99,199.996  v99.998v99.999v99.997v99.998h-100h-99.997h-0.001h-99.997h-99.998h-99.998V499.99v-99.997v-99.999v-99.998V99.998h99.998h99.998  h99.997h0.001h99.997h100V199.996z"
   id="path319" />
</svg>
<svg
   version="1.0"
   id="svg321"
   x="173"
   y="1427"
   width="399"
   height="399"
   viewBox="0 0 699.988 699.988"
   enable-background="new 0 0 699.988 699.988"
   xml:space="preserve"
   shape-rendering="auto">
<polygon
   fill="#000000"
   points="399.994,199.997 399.992,199.997 299.996,199.997 199.998,199.997 199.998,299.994 199.998,399.994   199.998,499.991 299.996,499.991 399.992,499.991 399.994,499.991 499.99,499.991 499.99,399.994 499.99,299.994 499.99,199.997 "
   id="polygon320" />
</svg>
</svg>

</svg>
